%TF.GenerationSoftware,KiCad,Pcbnew,10.0.3*%
%TF.CreationDate,2026-06-20T17:59:41+09:00*%
%TF.ProjectId,MiP D1 mini Pack,4d695020-4431-4206-9d69-6e6920506163,3*%
%TF.SameCoordinates,Original*%
%TF.FileFunction,Copper,L2,Bot*%
%TF.FilePolarity,Positive*%
%FSLAX46Y46*%
G04 Gerber Fmt 4.6, Leading zero omitted, Abs format (unit mm)*
G04 Created by KiCad (PCBNEW 10.0.3) date 2026-06-20 17:59:41*
%MOMM*%
%LPD*%
G01*
G04 APERTURE LIST*
G04 Aperture macros list*
%AMRoundRect*
0 Rectangle with rounded corners*
0 $1 Rounding radius*
0 $2 $3 $4 $5 $6 $7 $8 $9 X,Y pos of 4 corners*
0 Add a 4 corners polygon primitive as box body*
4,1,4,$2,$3,$4,$5,$6,$7,$8,$9,$2,$3,0*
0 Add four circle primitives for the rounded corners*
1,1,$1+$1,$2,$3*
1,1,$1+$1,$4,$5*
1,1,$1+$1,$6,$7*
1,1,$1+$1,$8,$9*
0 Add four rect primitives between the rounded corners*
20,1,$1+$1,$2,$3,$4,$5,0*
20,1,$1+$1,$4,$5,$6,$7,0*
20,1,$1+$1,$6,$7,$8,$9,0*
20,1,$1+$1,$8,$9,$2,$3,0*%
G04 Aperture macros list end*
%TA.AperFunction,ComponentPad*%
%ADD10R,1.700000X1.700000*%
%TD*%
%TA.AperFunction,ComponentPad*%
%ADD11C,1.700000*%
%TD*%
%TA.AperFunction,ComponentPad*%
%ADD12R,2.000000X2.000000*%
%TD*%
%TA.AperFunction,ComponentPad*%
%ADD13O,2.000000X1.600000*%
%TD*%
%TA.AperFunction,ComponentPad*%
%ADD14RoundRect,0.250000X-0.615000X0.265000X-0.615000X-0.265000X0.615000X-0.265000X0.615000X0.265000X0*%
%TD*%
%TA.AperFunction,ComponentPad*%
%ADD15O,1.730000X1.030000*%
%TD*%
%TA.AperFunction,ViaPad*%
%ADD16C,1.930400*%
%TD*%
%TA.AperFunction,ViaPad*%
%ADD17C,1.108000*%
%TD*%
%TA.AperFunction,Conductor*%
%ADD18C,0.609600*%
%TD*%
G04 APERTURE END LIST*
D10*
%TO.P,J3,1,1_1*%
%TO.N,/Debug*%
X138300000Y-124500000D03*
D11*
%TO.P,J3,2,2_2*%
%TO.N,GND*%
X140840000Y-124500000D03*
%TD*%
D12*
%TO.P,U1,1,~{RST}_1*%
%TO.N,unconnected-(U1-~{RST}-Pad1)*%
X137100000Y-88600000D03*
D13*
%TO.P,U1,2,A0_2*%
%TO.N,unconnected-(U1-A0-Pad2)*%
X137100000Y-91140000D03*
%TO.P,U1,3,D0_3*%
%TO.N,unconnected-(U1-D0-Pad3)*%
X137100000Y-93680000D03*
%TO.P,U1,4,SCK/D5_4*%
%TO.N,unconnected-(U1-SCK{slash}D5-Pad4)*%
X137100000Y-96220000D03*
%TO.P,U1,5,MISO/D6_5*%
%TO.N,unconnected-(U1-MISO{slash}D6-Pad5)*%
X137100000Y-98760000D03*
%TO.P,U1,6,MOSI/D7_6*%
%TO.N,/RX*%
X137100000Y-101300000D03*
%TO.P,U1,7,CS/D8_7*%
%TO.N,/<NO NET>*%
X137100000Y-103840000D03*
%TO.P,U1,8,3V3_8*%
%TO.N,unconnected-(U1-3V3-Pad8)*%
X137100000Y-106380000D03*
%TO.P,U1,9,5V_9*%
%TO.N,+6V*%
X159960000Y-106380000D03*
%TO.P,U1,10,GND_10*%
%TO.N,GND*%
X159960000Y-103840000D03*
%TO.P,U1,11,D4_11*%
%TO.N,/Debug*%
X159960000Y-101300000D03*
%TO.P,U1,12,D3_12*%
%TO.N,unconnected-(U1-D3-Pad12)*%
X159960000Y-98760000D03*
%TO.P,U1,13,SDA/D2_13*%
%TO.N,unconnected-(U1-SDA{slash}D2-Pad13)*%
X159960000Y-96220000D03*
%TO.P,U1,14,SCL/D1_14*%
%TO.N,unconnected-(U1-SCL{slash}D1-Pad14)*%
X159960000Y-93680000D03*
%TO.P,U1,15,RX_15*%
%TO.N,unconnected-(U1-RX-Pad15)*%
X159960000Y-91140000D03*
%TO.P,U1,16,TX_16*%
%TO.N,unconnected-(U1-TX-Pad16)*%
X159960000Y-88600000D03*
%TD*%
D14*
%TO.P,JP11,1,1_1*%
%TO.N,GND*%
X131200000Y-104900000D03*
D15*
%TO.P,JP11,2,2_2*%
%TO.N,/<NO NET>*%
X131200000Y-106400000D03*
%TO.P,JP11,3,3_3*%
%TO.N,/RX*%
X131200000Y-107900000D03*
%TO.P,JP11,4,4_4*%
%TO.N,+6V*%
X131200000Y-109400000D03*
%TD*%
D16*
%TO.N,*%
X147230100Y-129252600D03*
X165400000Y-103852600D03*
X157390100Y-129252600D03*
X165400000Y-108932600D03*
X144690100Y-129252600D03*
X147230100Y-116552600D03*
X152310100Y-129252600D03*
X149770100Y-129252600D03*
X159930100Y-131792600D03*
X149770100Y-124172600D03*
X154850100Y-126712600D03*
X149770100Y-121632600D03*
X159930100Y-121632600D03*
X152310100Y-119092600D03*
X152310100Y-121632600D03*
X159930100Y-124172600D03*
X147230100Y-131792600D03*
X147230100Y-126712600D03*
X159930100Y-119092600D03*
X149770100Y-119092600D03*
X144690100Y-126712600D03*
X159930100Y-129252600D03*
X152310100Y-131792600D03*
X144690100Y-131792600D03*
X157390100Y-116552600D03*
X165400000Y-98772600D03*
X152310100Y-126712600D03*
X147230100Y-121632600D03*
X152310100Y-116552600D03*
X157390100Y-124172600D03*
X154850100Y-121632600D03*
X149770100Y-116552600D03*
X165400000Y-101312600D03*
X154850100Y-124172600D03*
X144690100Y-116552600D03*
X157390100Y-119092600D03*
X152310100Y-124172600D03*
X157390100Y-131792600D03*
X147230100Y-119092600D03*
X157390100Y-121632600D03*
X147230100Y-124172600D03*
X154850100Y-129252600D03*
X165400000Y-106392600D03*
X154850100Y-131792600D03*
X157390100Y-126712600D03*
X154850100Y-119092600D03*
X144690100Y-124172600D03*
X144690100Y-119092600D03*
X162870100Y-108932600D03*
X144690100Y-121632600D03*
X159930100Y-126712600D03*
X149770100Y-131792600D03*
X149770100Y-126712600D03*
X154850100Y-116552600D03*
%TO.N,/Debug*%
X162870100Y-101312600D03*
D17*
%TO.N,GND*%
X130000000Y-102600000D03*
X139610100Y-108932600D03*
X144690100Y-108932600D03*
D16*
X162870100Y-103852600D03*
%TO.N,unconnected-(U1-~{RST}-Pad1)*%
X134100000Y-88660000D03*
%TO.N,unconnected-(U1-A0-Pad2)*%
X134100000Y-91200000D03*
%TO.N,unconnected-(U1-D0-Pad3)*%
X134100000Y-93740000D03*
%TO.N,unconnected-(U1-SCK{slash}D5-Pad4)*%
X134100000Y-96280000D03*
%TO.N,unconnected-(U1-MISO{slash}D6-Pad5)*%
X134100000Y-98820000D03*
%TO.N,+6V*%
X162870100Y-106392600D03*
%TO.N,unconnected-(U1-D3-Pad12)*%
X162870100Y-98772600D03*
%TO.N,unconnected-(U1-SDA{slash}D2-Pad13)*%
X162870100Y-96232600D03*
%TO.N,unconnected-(U1-SCL{slash}D1-Pad14)*%
X162870100Y-93692600D03*
%TO.N,unconnected-(U1-RX-Pad15)*%
X162870100Y-91152600D03*
%TO.N,unconnected-(U1-TX-Pad16)*%
X162870100Y-88612600D03*
%TD*%
%TO.N,/Debug*%
D18*
X162970000Y-101300000D02*
X160030000Y-101300000D01*
%TO.N,GND*%
X162870000Y-103900000D02*
X159930000Y-103900000D01*
X130000000Y-103712500D02*
X131228100Y-104940600D01*
X130000000Y-102600000D02*
X130000000Y-103712500D01*
X139610100Y-108932600D02*
X144690100Y-108932600D01*
%TO.N,unconnected-(U1-~{RST}-Pad1)*%
X137100000Y-88600000D02*
X134160000Y-88600000D01*
%TO.N,unconnected-(U1-A0-Pad2)*%
X137170000Y-91200000D02*
X134230000Y-91200000D01*
%TO.N,unconnected-(U1-D0-Pad3)*%
X137070000Y-93700000D02*
X134130000Y-93700000D01*
%TO.N,unconnected-(U1-SCK{slash}D5-Pad4)*%
X137070000Y-96300000D02*
X134130000Y-96300000D01*
%TO.N,unconnected-(U1-MISO{slash}D6-Pad5)*%
X137070000Y-98800000D02*
X134130000Y-98800000D01*
%TO.N,/RX*%
X131228100Y-107940600D02*
X132982100Y-107940600D01*
X132982100Y-107940600D02*
X134530100Y-106392600D01*
X134530100Y-103852600D02*
X137070100Y-101312600D01*
X134530100Y-106392600D02*
X134530100Y-103852600D01*
%TO.N,+6V*%
X133260100Y-110202600D02*
X156120100Y-110202600D01*
X162870000Y-106400000D02*
X159930000Y-106400000D01*
X131228100Y-109440600D02*
X132498100Y-109440600D01*
X156120100Y-110202600D02*
X159930100Y-106392600D01*
X132498100Y-109440600D02*
X133260100Y-110202600D01*
%TO.N,unconnected-(U1-D3-Pad12)*%
X162970000Y-98800000D02*
X160030000Y-98800000D01*
%TO.N,unconnected-(U1-SDA{slash}D2-Pad13)*%
X162870000Y-96200000D02*
X159930000Y-96200000D01*
%TO.N,unconnected-(U1-SCL{slash}D1-Pad14)*%
X162970000Y-93700000D02*
X160030000Y-93700000D01*
%TO.N,unconnected-(U1-RX-Pad15)*%
X162870000Y-91100000D02*
X159930000Y-91100000D01*
%TO.N,unconnected-(U1-TX-Pad16)*%
X162870000Y-88600000D02*
X159930000Y-88600000D01*
%TD*%
M02*
