M48
; DRILL file KiCad 10.0.3 date 2026-06-20T17:59:38
; FORMAT={-:-/ absolute / metric / decimal}
; #@! TF.CreationDate,2026-06-20T17:59:38+09:00
; #@! TF.GenerationSoftware,Kicad,Pcbnew,10.0.3
; #@! TF.FileFunction,Plated,1,2,PTH
FMAT,2
METRIC
; #@! TA.AperFunction,Plated,PTH,ViaDrill
T1C0.600
; #@! TA.AperFunction,Plated,PTH,ComponentDrill
T2C0.730
; #@! TA.AperFunction,Plated,PTH,ComponentDrill
T3C0.900
; #@! TA.AperFunction,Plated,PTH,ViaDrill
T4C1.000
; #@! TA.AperFunction,Plated,PTH,ComponentDrill
T5C1.000
%
G90
G05
T1
X130.0Y-102.6
X139.61Y-108.933
X144.69Y-108.933
T2
X131.2Y-104.9
X131.2Y-106.4
X131.2Y-107.9
X131.2Y-109.4
T3
X137.1Y-88.6
X137.1Y-91.14
X137.1Y-93.68
X137.1Y-96.22
X137.1Y-98.76
X137.1Y-101.3
X137.1Y-103.84
X137.1Y-106.38
X159.96Y-88.6
X159.96Y-91.14
X159.96Y-93.68
X159.96Y-96.22
X159.96Y-98.76
X159.96Y-101.3
X159.96Y-103.84
X159.96Y-106.38
T4
X134.1Y-88.66
X134.1Y-91.2
X134.1Y-93.74
X134.1Y-96.28
X134.1Y-98.82
X144.69Y-116.553
X144.69Y-119.093
X144.69Y-121.633
X144.69Y-124.173
X144.69Y-126.713
X144.69Y-129.253
X144.69Y-131.793
X147.23Y-116.553
X147.23Y-119.093
X147.23Y-121.633
X147.23Y-124.173
X147.23Y-126.713
X147.23Y-129.253
X147.23Y-131.793
X149.77Y-116.553
X149.77Y-119.093
X149.77Y-121.633
X149.77Y-124.173
X149.77Y-126.713
X149.77Y-129.253
X149.77Y-131.793
X152.31Y-116.553
X152.31Y-119.093
X152.31Y-121.633
X152.31Y-124.173
X152.31Y-126.713
X152.31Y-129.253
X152.31Y-131.793
X154.85Y-116.553
X154.85Y-119.093
X154.85Y-121.633
X154.85Y-124.173
X154.85Y-126.713
X154.85Y-129.253
X154.85Y-131.793
X157.39Y-116.553
X157.39Y-119.093
X157.39Y-121.633
X157.39Y-124.173
X157.39Y-126.713
X157.39Y-129.253
X157.39Y-131.793
X159.93Y-119.093
X159.93Y-121.633
X159.93Y-124.173
X159.93Y-126.713
X159.93Y-129.253
X159.93Y-131.793
X162.87Y-88.613
X162.87Y-91.153
X162.87Y-93.693
X162.87Y-96.233
X162.87Y-98.773
X162.87Y-101.313
X162.87Y-103.853
X162.87Y-106.393
X162.87Y-108.933
X165.4Y-98.773
X165.4Y-101.313
X165.4Y-103.853
X165.4Y-106.393
X165.4Y-108.933
T5
X138.3Y-124.5
X140.84Y-124.5
M30
