%TF.GenerationSoftware,KiCad,Pcbnew,10.0.3*%
%TF.CreationDate,2026-06-20T17:59:41+09:00*%
%TF.ProjectId,MiP D1 mini Pack,4d695020-4431-4206-9d69-6e6920506163,3*%
%TF.SameCoordinates,Original*%
%TF.FileFunction,Copper,L1,Top*%
%TF.FilePolarity,Positive*%
%FSLAX46Y46*%
G04 Gerber Fmt 4.6, Leading zero omitted, Abs format (unit mm)*
G04 Created by KiCad (PCBNEW 10.0.3) date 2026-06-20 17:59:41*
%MOMM*%
%LPD*%
G01*
G04 APERTURE LIST*
G04 Aperture macros list*
%AMRoundRect*
0 Rectangle with rounded corners*
0 $1 Rounding radius*
0 $2 $3 $4 $5 $6 $7 $8 $9 X,Y pos of 4 corners*
0 Add a 4 corners polygon primitive as box body*
4,1,4,$2,$3,$4,$5,$6,$7,$8,$9,$2,$3,0*
0 Add four circle primitives for the rounded corners*
1,1,$1+$1,$2,$3*
1,1,$1+$1,$4,$5*
1,1,$1+$1,$6,$7*
1,1,$1+$1,$8,$9*
0 Add four rect primitives between the rounded corners*
20,1,$1+$1,$2,$3,$4,$5,0*
20,1,$1+$1,$4,$5,$6,$7,0*
20,1,$1+$1,$6,$7,$8,$9,0*
20,1,$1+$1,$8,$9,$2,$3,0*%
G04 Aperture macros list end*
%TA.AperFunction,ComponentPad*%
%ADD10R,1.700000X1.700000*%
%TD*%
%TA.AperFunction,ComponentPad*%
%ADD11C,1.700000*%
%TD*%
%TA.AperFunction,SMDPad,CuDef*%
%ADD12RoundRect,0.250000X0.350000X0.450000X-0.350000X0.450000X-0.350000X-0.450000X0.350000X-0.450000X0*%
%TD*%
%TA.AperFunction,ComponentPad*%
%ADD13R,2.000000X2.000000*%
%TD*%
%TA.AperFunction,ComponentPad*%
%ADD14O,2.000000X1.600000*%
%TD*%
%TA.AperFunction,ComponentPad*%
%ADD15RoundRect,0.250000X-0.615000X0.265000X-0.615000X-0.265000X0.615000X-0.265000X0.615000X0.265000X0*%
%TD*%
%TA.AperFunction,ComponentPad*%
%ADD16O,1.730000X1.030000*%
%TD*%
%TA.AperFunction,ViaPad*%
%ADD17C,1.930400*%
%TD*%
%TA.AperFunction,ViaPad*%
%ADD18C,1.108000*%
%TD*%
%TA.AperFunction,Conductor*%
%ADD19C,0.609600*%
%TD*%
%TA.AperFunction,Conductor*%
%ADD20C,0.200000*%
%TD*%
G04 APERTURE END LIST*
D10*
%TO.P,J3,1,1_1*%
%TO.N,/Debug*%
X138300000Y-124500000D03*
D11*
%TO.P,J3,2,2_2*%
%TO.N,GND*%
X140840000Y-124500000D03*
%TD*%
D12*
%TO.P,R1,1*%
%TO.N,/<NO NET>*%
X133600000Y-101400000D03*
%TO.P,R1,2*%
%TO.N,GND*%
X131600000Y-101400000D03*
%TD*%
D13*
%TO.P,U1,1,~{RST}_1*%
%TO.N,unconnected-(U1-~{RST}-Pad1)*%
X137100000Y-88600000D03*
D14*
%TO.P,U1,2,A0_2*%
%TO.N,unconnected-(U1-A0-Pad2)*%
X137100000Y-91140000D03*
%TO.P,U1,3,D0_3*%
%TO.N,unconnected-(U1-D0-Pad3)*%
X137100000Y-93680000D03*
%TO.P,U1,4,SCK/D5_4*%
%TO.N,unconnected-(U1-SCK{slash}D5-Pad4)*%
X137100000Y-96220000D03*
%TO.P,U1,5,MISO/D6_5*%
%TO.N,unconnected-(U1-MISO{slash}D6-Pad5)*%
X137100000Y-98760000D03*
%TO.P,U1,6,MOSI/D7_6*%
%TO.N,/RX*%
X137100000Y-101300000D03*
%TO.P,U1,7,CS/D8_7*%
%TO.N,/<NO NET>*%
X137100000Y-103840000D03*
%TO.P,U1,8,3V3_8*%
%TO.N,unconnected-(U1-3V3-Pad8)*%
X137100000Y-106380000D03*
%TO.P,U1,9,5V_9*%
%TO.N,+6V*%
X159960000Y-106380000D03*
%TO.P,U1,10,GND_10*%
%TO.N,GND*%
X159960000Y-103840000D03*
%TO.P,U1,11,D4_11*%
%TO.N,/Debug*%
X159960000Y-101300000D03*
%TO.P,U1,12,D3_12*%
%TO.N,unconnected-(U1-D3-Pad12)*%
X159960000Y-98760000D03*
%TO.P,U1,13,SDA/D2_13*%
%TO.N,unconnected-(U1-SDA{slash}D2-Pad13)*%
X159960000Y-96220000D03*
%TO.P,U1,14,SCL/D1_14*%
%TO.N,unconnected-(U1-SCL{slash}D1-Pad14)*%
X159960000Y-93680000D03*
%TO.P,U1,15,RX_15*%
%TO.N,unconnected-(U1-RX-Pad15)*%
X159960000Y-91140000D03*
%TO.P,U1,16,TX_16*%
%TO.N,unconnected-(U1-TX-Pad16)*%
X159960000Y-88600000D03*
%TD*%
D15*
%TO.P,JP11,1,1_1*%
%TO.N,GND*%
X131200000Y-104900000D03*
D16*
%TO.P,JP11,2,2_2*%
%TO.N,/<NO NET>*%
X131200000Y-106400000D03*
%TO.P,JP11,3,3_3*%
%TO.N,/RX*%
X131200000Y-107900000D03*
%TO.P,JP11,4,4_4*%
%TO.N,+6V*%
X131200000Y-109400000D03*
%TD*%
D17*
%TO.N,*%
X147230100Y-129252600D03*
X165400000Y-103852600D03*
X157390100Y-129252600D03*
X165400000Y-108932600D03*
X144690100Y-129252600D03*
X147230100Y-116552600D03*
X152310100Y-129252600D03*
X149770100Y-129252600D03*
X159930100Y-131792600D03*
X149770100Y-124172600D03*
X154850100Y-126712600D03*
X149770100Y-121632600D03*
X159930100Y-121632600D03*
X152310100Y-119092600D03*
X152310100Y-121632600D03*
X159930100Y-124172600D03*
X147230100Y-131792600D03*
X147230100Y-126712600D03*
X159930100Y-119092600D03*
X149770100Y-119092600D03*
X144690100Y-126712600D03*
X159930100Y-129252600D03*
X152310100Y-131792600D03*
X144690100Y-131792600D03*
X157390100Y-116552600D03*
X165400000Y-98772600D03*
X152310100Y-126712600D03*
X147230100Y-121632600D03*
X152310100Y-116552600D03*
X157390100Y-124172600D03*
X154850100Y-121632600D03*
X149770100Y-116552600D03*
X165400000Y-101312600D03*
X154850100Y-124172600D03*
X144690100Y-116552600D03*
X157390100Y-119092600D03*
X152310100Y-124172600D03*
X157390100Y-131792600D03*
X147230100Y-119092600D03*
X157390100Y-121632600D03*
X147230100Y-124172600D03*
X154850100Y-129252600D03*
X165400000Y-106392600D03*
X154850100Y-131792600D03*
X157390100Y-126712600D03*
X154850100Y-119092600D03*
X144690100Y-124172600D03*
X144690100Y-119092600D03*
X162870100Y-108932600D03*
X144690100Y-121632600D03*
X159930100Y-126712600D03*
X149770100Y-131792600D03*
X149770100Y-126712600D03*
X154850100Y-116552600D03*
%TO.N,/Debug*%
X162870100Y-101312600D03*
D18*
%TO.N,GND*%
X130000000Y-102600000D03*
X139610100Y-108932600D03*
X144690100Y-108932600D03*
D17*
X162870100Y-103852600D03*
%TO.N,unconnected-(U1-~{RST}-Pad1)*%
X134100000Y-88660000D03*
%TO.N,unconnected-(U1-A0-Pad2)*%
X134100000Y-91200000D03*
%TO.N,unconnected-(U1-D0-Pad3)*%
X134100000Y-93740000D03*
%TO.N,unconnected-(U1-SCK{slash}D5-Pad4)*%
X134100000Y-96280000D03*
%TO.N,unconnected-(U1-MISO{slash}D6-Pad5)*%
X134100000Y-98820000D03*
%TO.N,+6V*%
X162870100Y-106392600D03*
%TO.N,unconnected-(U1-D3-Pad12)*%
X162870100Y-98772600D03*
%TO.N,unconnected-(U1-SDA{slash}D2-Pad13)*%
X162870100Y-96232600D03*
%TO.N,unconnected-(U1-SCL{slash}D1-Pad14)*%
X162870100Y-93692600D03*
%TO.N,unconnected-(U1-RX-Pad15)*%
X162870100Y-91152600D03*
%TO.N,unconnected-(U1-TX-Pad16)*%
X162870100Y-88612600D03*
%TD*%
%TO.N,/Debug*%
D19*
X138340100Y-124672600D02*
X138340100Y-112742600D01*
X149770100Y-101312600D02*
X159930100Y-101312600D01*
X138340100Y-112742600D02*
X149770100Y-101312600D01*
%TO.N,GND*%
X133078100Y-104940600D02*
X135800100Y-108932600D01*
X131600000Y-101400000D02*
X131200000Y-101400000D01*
X144690100Y-108932600D02*
X154850100Y-108932600D01*
X131200000Y-101400000D02*
X130000000Y-102600000D01*
X140880100Y-124672600D02*
X140880100Y-112742600D01*
X154850100Y-108932600D02*
X159930100Y-103852600D01*
X140880100Y-112742600D02*
X144690100Y-108932600D01*
X135800100Y-108932600D02*
X139610100Y-108932600D01*
X131228100Y-104940600D02*
X133078100Y-104940600D01*
%TO.N,unconnected-(U1-~{RST}-Pad1)*%
D20*
X134160000Y-88600000D02*
X134100000Y-88660000D01*
%TO.N,/<NO NET>*%
D19*
X133600000Y-101400000D02*
X133600000Y-103700200D01*
X136866900Y-103700200D02*
X133600000Y-103700200D01*
X131200000Y-106400000D02*
X130000000Y-106400000D01*
X130000000Y-106400000D02*
X129500000Y-105900000D01*
X130923300Y-106291000D02*
X131228100Y-106291000D01*
X131228100Y-106291000D02*
X131228100Y-106440600D01*
X137019300Y-103852600D02*
X137070100Y-103852600D01*
X133600000Y-103700200D02*
X130770900Y-103700200D01*
X130299800Y-103700200D02*
X130770900Y-103700200D01*
X129500000Y-105900000D02*
X129500000Y-104500000D01*
X137019300Y-103852600D02*
X136866900Y-103700200D01*
X129500000Y-104500000D02*
X130299800Y-103700200D01*
%TD*%
M02*
