%TF.GenerationSoftware,KiCad,Pcbnew,10.0.3*%
%TF.CreationDate,2026-06-20T17:59:41+09:00*%
%TF.ProjectId,MiP D1 mini Pack,4d695020-4431-4206-9d69-6e6920506163,3*%
%TF.SameCoordinates,Original*%
%TF.FileFunction,Profile,NP*%
%FSLAX46Y46*%
G04 Gerber Fmt 4.6, Leading zero omitted, Abs format (unit mm)*
G04 Created by KiCad (PCBNEW 10.0.3) date 2026-06-20 17:59:41*
%MOMM*%
%LPD*%
G01*
G04 APERTURE LIST*
%TA.AperFunction,Profile*%
%ADD10C,0.153000*%
%TD*%
G04 APERTURE END LIST*
D10*
X127791100Y-115808600D02*
X127801100Y-116178600D01*
X127801100Y-116178600D02*
X127821100Y-116418600D01*
X127821100Y-114718600D02*
X127791100Y-115808600D01*
X127821100Y-116418600D02*
X127991100Y-117018600D01*
X127921100Y-113148600D02*
X127821100Y-114718600D01*
X127991100Y-117018600D02*
X128341100Y-118018600D01*
X128071100Y-111098600D02*
X127921100Y-113148600D01*
X128101100Y-110748600D02*
X128071100Y-111098600D01*
X128161100Y-110068600D02*
X128101100Y-110748600D01*
X128191100Y-109718600D02*
X128161100Y-110068600D01*
X128231100Y-109378600D02*
X128191100Y-109718600D01*
X128261100Y-109038600D02*
X128231100Y-109378600D01*
X128341100Y-118018600D02*
X128881100Y-119418600D01*
X128561100Y-106418600D02*
X128261100Y-109038600D01*
X128881100Y-119418600D02*
X129621100Y-121218600D01*
X129451100Y-100508600D02*
X128561100Y-106418600D01*
X129621100Y-121218600D02*
X132251100Y-126958600D01*
X130911100Y-93568600D02*
X129451100Y-100508600D01*
X132251100Y-126958600D02*
X135801100Y-133378600D01*
X132811100Y-86738600D02*
X130911100Y-93568600D01*
X135141100Y-80008600D02*
X132811100Y-86738600D01*
X135151100Y-79978600D02*
X135151100Y-79988600D01*
X135151100Y-79988600D02*
X135141100Y-80008600D01*
X135161100Y-79958600D02*
X135151100Y-79978600D01*
X135171100Y-79948600D02*
X135161100Y-79958600D01*
X135181100Y-79928600D02*
X135171100Y-79948600D01*
X135191100Y-79908600D02*
X135191100Y-79918600D01*
X135191100Y-79918600D02*
X135181100Y-79928600D01*
X135201100Y-79888600D02*
X135191100Y-79908600D01*
X135211100Y-79858600D02*
X135211100Y-79878600D01*
X135211100Y-79878600D02*
X135201100Y-79888600D01*
X135221100Y-79848600D02*
X135211100Y-79858600D01*
X135231100Y-79818600D02*
X135231100Y-79828600D01*
X135231100Y-79828600D02*
X135221100Y-79848600D01*
X135241100Y-79798600D02*
X135231100Y-79818600D01*
X135251100Y-79768600D02*
X135251100Y-79788600D01*
X135251100Y-79788600D02*
X135241100Y-79798600D01*
X135801100Y-133378600D02*
X136611100Y-134598600D01*
X136531100Y-76588600D02*
X135251100Y-79768600D01*
X136611100Y-134598600D02*
X137191100Y-135178600D01*
X136821100Y-75948600D02*
X136531100Y-76588600D01*
X137111100Y-75458600D02*
X136821100Y-75948600D01*
X137191100Y-135178600D02*
X137871100Y-135398600D01*
X137391100Y-75108600D02*
X137111100Y-75458600D01*
X137681100Y-74858600D02*
X137391100Y-75108600D01*
X137871100Y-135398600D02*
X138561100Y-135598600D01*
X138031100Y-74638600D02*
X137681100Y-74858600D01*
X138561100Y-135598600D02*
X139261100Y-135788600D01*
X138881100Y-74308600D02*
X138031100Y-74638600D01*
X139261100Y-135788600D02*
X139951100Y-135958600D01*
X139951100Y-135958600D02*
X140651100Y-136118600D01*
X140041100Y-74018600D02*
X138881100Y-74308600D01*
X140651100Y-136118600D02*
X141361100Y-136258600D01*
X141291100Y-73758600D02*
X140041100Y-74018600D01*
X141361100Y-136258600D02*
X142061100Y-136388600D01*
X142061100Y-136388600D02*
X142771100Y-136498600D01*
X142651100Y-73518600D02*
X141291100Y-73758600D01*
X142771100Y-136498600D02*
X143481100Y-136598600D01*
X143481100Y-136598600D02*
X144201100Y-136678600D01*
X144111100Y-73298600D02*
X142651100Y-73518600D01*
X144201100Y-136678600D02*
X144911100Y-136748600D01*
X144911100Y-136748600D02*
X145631100Y-136808600D01*
X145631100Y-136808600D02*
X146351100Y-136848600D01*
X145661100Y-73118600D02*
X144111100Y-73298600D01*
X146351100Y-136848600D02*
X147061100Y-136868600D01*
X147061100Y-136868600D02*
X147781100Y-136888600D01*
X147781100Y-136888600D02*
X148501100Y-136878600D01*
X148501100Y-136878600D02*
X149221100Y-136888600D01*
X149221100Y-136888600D02*
X149941100Y-136878600D01*
X149941100Y-136878600D02*
X150651100Y-136848600D01*
X150651100Y-136848600D02*
X151371100Y-136808600D01*
X151371100Y-136808600D02*
X152091100Y-136758600D01*
X151391100Y-73118600D02*
X145661100Y-73118600D01*
X152091100Y-136758600D02*
X152801100Y-136688600D01*
X152801100Y-136688600D02*
X153511100Y-136598600D01*
X153511100Y-136598600D02*
X154231100Y-136498600D01*
X154231100Y-136498600D02*
X154941100Y-136388600D01*
X154941100Y-136388600D02*
X155641100Y-136258600D01*
X155071100Y-73638600D02*
X151391100Y-73118600D01*
X155641100Y-136258600D02*
X156351100Y-136118600D01*
X156351100Y-136118600D02*
X157051100Y-135958600D01*
X157051100Y-135958600D02*
X157741100Y-135788600D01*
X157741100Y-135788600D02*
X158441100Y-135598600D01*
X158121100Y-74308600D02*
X155071100Y-73638600D01*
X158441100Y-135598600D02*
X159131100Y-135398600D01*
X158571100Y-74458600D02*
X158121100Y-74308600D01*
X158971100Y-74648600D02*
X158571100Y-74458600D01*
X159131100Y-135398600D02*
X159811100Y-135178600D01*
X159621100Y-75118600D02*
X158971100Y-74648600D01*
X159811100Y-135178600D02*
X160391100Y-134598600D01*
X160031100Y-75688600D02*
X159621100Y-75118600D01*
X160391100Y-134598600D02*
X161201100Y-133378600D01*
X160471100Y-76588600D02*
X160031100Y-75688600D01*
X160801100Y-77378600D02*
X160471100Y-76588600D01*
X161121100Y-78168600D02*
X160801100Y-77378600D01*
X161201100Y-133378600D02*
X164751100Y-126958600D01*
X161431100Y-78968600D02*
X161121100Y-78168600D01*
X161751100Y-79768600D02*
X161431100Y-78968600D01*
X161751100Y-79788600D02*
X161751100Y-79768600D01*
X161761100Y-79798600D02*
X161751100Y-79788600D01*
X161771100Y-79818600D02*
X161761100Y-79798600D01*
X161771100Y-79828600D02*
X161771100Y-79818600D01*
X161781100Y-79848600D02*
X161771100Y-79828600D01*
X161781100Y-79858600D02*
X161781100Y-79848600D01*
X161791100Y-79878600D02*
X161781100Y-79858600D01*
X161801100Y-79888600D02*
X161791100Y-79878600D01*
X161811100Y-79908600D02*
X161801100Y-79888600D01*
X161811100Y-79918600D02*
X161811100Y-79908600D01*
X161821100Y-79928600D02*
X161811100Y-79918600D01*
X161831100Y-79948600D02*
X161821100Y-79928600D01*
X161841100Y-79958600D02*
X161831100Y-79948600D01*
X161841100Y-79978600D02*
X161841100Y-79958600D01*
X161851100Y-79988600D02*
X161841100Y-79978600D01*
X161861100Y-80008600D02*
X161851100Y-79988600D01*
X163641100Y-85018600D02*
X161861100Y-80008600D01*
X164751100Y-126958600D02*
X167381100Y-121218600D01*
X165181100Y-90098600D02*
X163641100Y-85018600D01*
X166481100Y-95238600D02*
X165181100Y-90098600D01*
X167381100Y-121218600D02*
X167911100Y-119918600D01*
X167541100Y-100438600D02*
X166481100Y-95238600D01*
X167911100Y-119918600D02*
X168351100Y-118808600D01*
X168351100Y-105678600D02*
X167541100Y-100438600D01*
X168351100Y-118808600D02*
X168701100Y-117888600D01*
X168701100Y-117888600D02*
X168901100Y-117318600D01*
X168901100Y-117318600D02*
X169051100Y-116858600D01*
X168911100Y-110948600D02*
X168351100Y-105678600D01*
X168971100Y-111628600D02*
X168911100Y-110948600D01*
X169021100Y-112268600D02*
X168971100Y-111628600D01*
X169051100Y-116858600D02*
X169181100Y-116388600D01*
X169061100Y-112858600D02*
X169021100Y-112268600D01*
X169101100Y-113408600D02*
X169061100Y-112858600D01*
X169141100Y-113908600D02*
X169101100Y-113408600D01*
X169161100Y-114368600D02*
X169141100Y-113908600D01*
X169181100Y-116388600D02*
X169211100Y-116048600D01*
X169191100Y-114778600D02*
X169161100Y-114368600D01*
X169211100Y-115528600D02*
X169191100Y-114778600D01*
X169211100Y-116048600D02*
X169211100Y-115528600D01*
M02*
