%TF.GenerationSoftware,KiCad,Pcbnew,10.0.3*%
%TF.CreationDate,2026-06-20T17:59:41+09:00*%
%TF.ProjectId,MiP D1 mini Pack,4d695020-4431-4206-9d69-6e6920506163,3*%
%TF.SameCoordinates,Original*%
%TF.FileFunction,Legend,Top*%
%TF.FilePolarity,Positive*%
%FSLAX46Y46*%
G04 Gerber Fmt 4.6, Leading zero omitted, Abs format (unit mm)*
G04 Created by KiCad (PCBNEW 10.0.3) date 2026-06-20 17:59:41*
%MOMM*%
%LPD*%
G01*
G04 APERTURE LIST*
%ADD10C,0.121920*%
%ADD11C,0.152400*%
%ADD12C,0.171450*%
%ADD13C,0.140208*%
%ADD14C,0.120000*%
%ADD15C,0.000000*%
%ADD16C,0.150000*%
G04 APERTURE END LIST*
D10*
X132890953Y-106705875D02*
X132660660Y-106376884D01*
X132496165Y-106705875D02*
X132496165Y-106014995D01*
X132496165Y-106014995D02*
X132759357Y-106014995D01*
X132759357Y-106014995D02*
X132825155Y-106047894D01*
X132825155Y-106047894D02*
X132858054Y-106080793D01*
X132858054Y-106080793D02*
X132890953Y-106146591D01*
X132890953Y-106146591D02*
X132890953Y-106245288D01*
X132890953Y-106245288D02*
X132858054Y-106311086D01*
X132858054Y-106311086D02*
X132825155Y-106343985D01*
X132825155Y-106343985D02*
X132759357Y-106376884D01*
X132759357Y-106376884D02*
X132496165Y-106376884D01*
X133121247Y-106014995D02*
X133581833Y-106705875D01*
X133581833Y-106014995D02*
X133121247Y-106705875D01*
X132479715Y-107538995D02*
X132874503Y-107538995D01*
X132677109Y-108229875D02*
X132677109Y-107538995D01*
X133038999Y-107538995D02*
X133499585Y-108229875D01*
X133499585Y-107538995D02*
X133038999Y-108229875D01*
X132841604Y-109062995D02*
X132710008Y-109062995D01*
X132710008Y-109062995D02*
X132644210Y-109095894D01*
X132644210Y-109095894D02*
X132611311Y-109128793D01*
X132611311Y-109128793D02*
X132545513Y-109227490D01*
X132545513Y-109227490D02*
X132512614Y-109359086D01*
X132512614Y-109359086D02*
X132512614Y-109622278D01*
X132512614Y-109622278D02*
X132545513Y-109688076D01*
X132545513Y-109688076D02*
X132578412Y-109720976D01*
X132578412Y-109720976D02*
X132644210Y-109753875D01*
X132644210Y-109753875D02*
X132775806Y-109753875D01*
X132775806Y-109753875D02*
X132841604Y-109720976D01*
X132841604Y-109720976D02*
X132874503Y-109688076D01*
X132874503Y-109688076D02*
X132907402Y-109622278D01*
X132907402Y-109622278D02*
X132907402Y-109457783D01*
X132907402Y-109457783D02*
X132874503Y-109391985D01*
X132874503Y-109391985D02*
X132841604Y-109359086D01*
X132841604Y-109359086D02*
X132775806Y-109326187D01*
X132775806Y-109326187D02*
X132644210Y-109326187D01*
X132644210Y-109326187D02*
X132578412Y-109359086D01*
X132578412Y-109359086D02*
X132545513Y-109391985D01*
X132545513Y-109391985D02*
X132512614Y-109457783D01*
X133104797Y-109062995D02*
X133335090Y-109753875D01*
X133335090Y-109753875D02*
X133565383Y-109062995D01*
X132733715Y-104523894D02*
X132667917Y-104490995D01*
X132667917Y-104490995D02*
X132569220Y-104490995D01*
X132569220Y-104490995D02*
X132470523Y-104523894D01*
X132470523Y-104523894D02*
X132404725Y-104589692D01*
X132404725Y-104589692D02*
X132371826Y-104655490D01*
X132371826Y-104655490D02*
X132338927Y-104787086D01*
X132338927Y-104787086D02*
X132338927Y-104885783D01*
X132338927Y-104885783D02*
X132371826Y-105017379D01*
X132371826Y-105017379D02*
X132404725Y-105083177D01*
X132404725Y-105083177D02*
X132470523Y-105148976D01*
X132470523Y-105148976D02*
X132569220Y-105181875D01*
X132569220Y-105181875D02*
X132635018Y-105181875D01*
X132635018Y-105181875D02*
X132733715Y-105148976D01*
X132733715Y-105148976D02*
X132766614Y-105116076D01*
X132766614Y-105116076D02*
X132766614Y-104885783D01*
X132766614Y-104885783D02*
X132635018Y-104885783D01*
X133062706Y-105181875D02*
X133062706Y-104490995D01*
X133062706Y-104490995D02*
X133457494Y-105181875D01*
X133457494Y-105181875D02*
X133457494Y-104490995D01*
X133786485Y-105181875D02*
X133786485Y-104490995D01*
X133786485Y-104490995D02*
X133950980Y-104490995D01*
X133950980Y-104490995D02*
X134049677Y-104523894D01*
X134049677Y-104523894D02*
X134115475Y-104589692D01*
X134115475Y-104589692D02*
X134148374Y-104655490D01*
X134148374Y-104655490D02*
X134181273Y-104787086D01*
X134181273Y-104787086D02*
X134181273Y-104885783D01*
X134181273Y-104885783D02*
X134148374Y-105017379D01*
X134148374Y-105017379D02*
X134115475Y-105083177D01*
X134115475Y-105083177D02*
X134049677Y-105148976D01*
X134049677Y-105148976D02*
X133950980Y-105181875D01*
X133950980Y-105181875D02*
X133786485Y-105181875D01*
D11*
X147983143Y-135615860D02*
X148188762Y-136191593D01*
X148188762Y-136191593D02*
X148394381Y-135615860D01*
X148641124Y-135327993D02*
X149175733Y-135327993D01*
X149175733Y-135327993D02*
X148887867Y-135656984D01*
X148887867Y-135656984D02*
X149011238Y-135656984D01*
X149011238Y-135656984D02*
X149093486Y-135698108D01*
X149093486Y-135698108D02*
X149134610Y-135739231D01*
X149134610Y-135739231D02*
X149175733Y-135821479D01*
X149175733Y-135821479D02*
X149175733Y-136027098D01*
X149175733Y-136027098D02*
X149134610Y-136109346D01*
X149134610Y-136109346D02*
X149093486Y-136150470D01*
X149093486Y-136150470D02*
X149011238Y-136191593D01*
X149011238Y-136191593D02*
X148764495Y-136191593D01*
X148764495Y-136191593D02*
X148682248Y-136150470D01*
X148682248Y-136150470D02*
X148641124Y-136109346D01*
D12*
X144215528Y-134540542D02*
X144215528Y-133568992D01*
X144215528Y-133568992D02*
X144539378Y-134262956D01*
X144539378Y-134262956D02*
X144863228Y-133568992D01*
X144863228Y-133568992D02*
X144863228Y-134540542D01*
X145325871Y-134540542D02*
X145325871Y-133892842D01*
X145325871Y-133568992D02*
X145279607Y-133615256D01*
X145279607Y-133615256D02*
X145325871Y-133661520D01*
X145325871Y-133661520D02*
X145372135Y-133615256D01*
X145372135Y-133615256D02*
X145325871Y-133568992D01*
X145325871Y-133568992D02*
X145325871Y-133661520D01*
X145788514Y-134540542D02*
X145788514Y-133568992D01*
X145788514Y-133568992D02*
X146158628Y-133568992D01*
X146158628Y-133568992D02*
X146251157Y-133615256D01*
X146251157Y-133615256D02*
X146297421Y-133661520D01*
X146297421Y-133661520D02*
X146343685Y-133754049D01*
X146343685Y-133754049D02*
X146343685Y-133892842D01*
X146343685Y-133892842D02*
X146297421Y-133985370D01*
X146297421Y-133985370D02*
X146251157Y-134031635D01*
X146251157Y-134031635D02*
X146158628Y-134077899D01*
X146158628Y-134077899D02*
X145788514Y-134077899D01*
X147500293Y-134540542D02*
X147500293Y-133568992D01*
X147500293Y-133568992D02*
X147731614Y-133568992D01*
X147731614Y-133568992D02*
X147870407Y-133615256D01*
X147870407Y-133615256D02*
X147962936Y-133707785D01*
X147962936Y-133707785D02*
X148009200Y-133800313D01*
X148009200Y-133800313D02*
X148055464Y-133985370D01*
X148055464Y-133985370D02*
X148055464Y-134124163D01*
X148055464Y-134124163D02*
X148009200Y-134309220D01*
X148009200Y-134309220D02*
X147962936Y-134401749D01*
X147962936Y-134401749D02*
X147870407Y-134494278D01*
X147870407Y-134494278D02*
X147731614Y-134540542D01*
X147731614Y-134540542D02*
X147500293Y-134540542D01*
X148980750Y-134540542D02*
X148425579Y-134540542D01*
X148703164Y-134540542D02*
X148703164Y-133568992D01*
X148703164Y-133568992D02*
X148610636Y-133707785D01*
X148610636Y-133707785D02*
X148518107Y-133800313D01*
X148518107Y-133800313D02*
X148425579Y-133846578D01*
X150137358Y-134540542D02*
X150137358Y-133892842D01*
X150137358Y-133985370D02*
X150183622Y-133939106D01*
X150183622Y-133939106D02*
X150276151Y-133892842D01*
X150276151Y-133892842D02*
X150414944Y-133892842D01*
X150414944Y-133892842D02*
X150507472Y-133939106D01*
X150507472Y-133939106D02*
X150553737Y-134031635D01*
X150553737Y-134031635D02*
X150553737Y-134540542D01*
X150553737Y-134031635D02*
X150600001Y-133939106D01*
X150600001Y-133939106D02*
X150692529Y-133892842D01*
X150692529Y-133892842D02*
X150831322Y-133892842D01*
X150831322Y-133892842D02*
X150923851Y-133939106D01*
X150923851Y-133939106D02*
X150970115Y-134031635D01*
X150970115Y-134031635D02*
X150970115Y-134540542D01*
X151432758Y-134540542D02*
X151432758Y-133892842D01*
X151432758Y-133568992D02*
X151386494Y-133615256D01*
X151386494Y-133615256D02*
X151432758Y-133661520D01*
X151432758Y-133661520D02*
X151479022Y-133615256D01*
X151479022Y-133615256D02*
X151432758Y-133568992D01*
X151432758Y-133568992D02*
X151432758Y-133661520D01*
X151895401Y-133892842D02*
X151895401Y-134540542D01*
X151895401Y-133985370D02*
X151941665Y-133939106D01*
X151941665Y-133939106D02*
X152034194Y-133892842D01*
X152034194Y-133892842D02*
X152172987Y-133892842D01*
X152172987Y-133892842D02*
X152265515Y-133939106D01*
X152265515Y-133939106D02*
X152311780Y-134031635D01*
X152311780Y-134031635D02*
X152311780Y-134540542D01*
X152774422Y-134540542D02*
X152774422Y-133892842D01*
X152774422Y-133568992D02*
X152728158Y-133615256D01*
X152728158Y-133615256D02*
X152774422Y-133661520D01*
X152774422Y-133661520D02*
X152820686Y-133615256D01*
X152820686Y-133615256D02*
X152774422Y-133568992D01*
X152774422Y-133568992D02*
X152774422Y-133661520D01*
X153977294Y-134540542D02*
X153977294Y-133568992D01*
X153977294Y-133568992D02*
X154347408Y-133568992D01*
X154347408Y-133568992D02*
X154439937Y-133615256D01*
X154439937Y-133615256D02*
X154486201Y-133661520D01*
X154486201Y-133661520D02*
X154532465Y-133754049D01*
X154532465Y-133754049D02*
X154532465Y-133892842D01*
X154532465Y-133892842D02*
X154486201Y-133985370D01*
X154486201Y-133985370D02*
X154439937Y-134031635D01*
X154439937Y-134031635D02*
X154347408Y-134077899D01*
X154347408Y-134077899D02*
X153977294Y-134077899D01*
X155365223Y-134540542D02*
X155365223Y-134031635D01*
X155365223Y-134031635D02*
X155318958Y-133939106D01*
X155318958Y-133939106D02*
X155226430Y-133892842D01*
X155226430Y-133892842D02*
X155041373Y-133892842D01*
X155041373Y-133892842D02*
X154948844Y-133939106D01*
X155365223Y-134494278D02*
X155272694Y-134540542D01*
X155272694Y-134540542D02*
X155041373Y-134540542D01*
X155041373Y-134540542D02*
X154948844Y-134494278D01*
X154948844Y-134494278D02*
X154902580Y-134401749D01*
X154902580Y-134401749D02*
X154902580Y-134309220D01*
X154902580Y-134309220D02*
X154948844Y-134216692D01*
X154948844Y-134216692D02*
X155041373Y-134170428D01*
X155041373Y-134170428D02*
X155272694Y-134170428D01*
X155272694Y-134170428D02*
X155365223Y-134124163D01*
X156244244Y-134494278D02*
X156151715Y-134540542D01*
X156151715Y-134540542D02*
X155966658Y-134540542D01*
X155966658Y-134540542D02*
X155874129Y-134494278D01*
X155874129Y-134494278D02*
X155827865Y-134448013D01*
X155827865Y-134448013D02*
X155781601Y-134355485D01*
X155781601Y-134355485D02*
X155781601Y-134077899D01*
X155781601Y-134077899D02*
X155827865Y-133985370D01*
X155827865Y-133985370D02*
X155874129Y-133939106D01*
X155874129Y-133939106D02*
X155966658Y-133892842D01*
X155966658Y-133892842D02*
X156151715Y-133892842D01*
X156151715Y-133892842D02*
X156244244Y-133939106D01*
X156660622Y-134540542D02*
X156660622Y-133568992D01*
X156753151Y-134170428D02*
X157030736Y-134540542D01*
X157030736Y-133892842D02*
X156660622Y-134262956D01*
X136539092Y-123134828D02*
X136539092Y-122579657D01*
X137510642Y-122857242D02*
X136539092Y-122857242D01*
X136539092Y-122348335D02*
X137510642Y-121700635D01*
X136539092Y-121700635D02*
X137510642Y-122348335D01*
X141665356Y-123134828D02*
X141619092Y-123227357D01*
X141619092Y-123227357D02*
X141619092Y-123366149D01*
X141619092Y-123366149D02*
X141665356Y-123504942D01*
X141665356Y-123504942D02*
X141757885Y-123597471D01*
X141757885Y-123597471D02*
X141850413Y-123643735D01*
X141850413Y-123643735D02*
X142035470Y-123689999D01*
X142035470Y-123689999D02*
X142174263Y-123689999D01*
X142174263Y-123689999D02*
X142359320Y-123643735D01*
X142359320Y-123643735D02*
X142451849Y-123597471D01*
X142451849Y-123597471D02*
X142544378Y-123504942D01*
X142544378Y-123504942D02*
X142590642Y-123366149D01*
X142590642Y-123366149D02*
X142590642Y-123273621D01*
X142590642Y-123273621D02*
X142544378Y-123134828D01*
X142544378Y-123134828D02*
X142498113Y-123088564D01*
X142498113Y-123088564D02*
X142174263Y-123088564D01*
X142174263Y-123088564D02*
X142174263Y-123273621D01*
X142590642Y-122672185D02*
X141619092Y-122672185D01*
X141619092Y-122672185D02*
X142590642Y-122117014D01*
X142590642Y-122117014D02*
X141619092Y-122117014D01*
X142590642Y-121654371D02*
X141619092Y-121654371D01*
X141619092Y-121654371D02*
X141619092Y-121423050D01*
X141619092Y-121423050D02*
X141665356Y-121284257D01*
X141665356Y-121284257D02*
X141757885Y-121191728D01*
X141757885Y-121191728D02*
X141850413Y-121145464D01*
X141850413Y-121145464D02*
X142035470Y-121099200D01*
X142035470Y-121099200D02*
X142174263Y-121099200D01*
X142174263Y-121099200D02*
X142359320Y-121145464D01*
X142359320Y-121145464D02*
X142451849Y-121191728D01*
X142451849Y-121191728D02*
X142544378Y-121284257D01*
X142544378Y-121284257D02*
X142590642Y-121423050D01*
X142590642Y-121423050D02*
X142590642Y-121654371D01*
D13*
X140245611Y-89286956D02*
X139708147Y-88519150D01*
X139324244Y-89286956D02*
X139324244Y-87674564D01*
X139324244Y-87674564D02*
X139938489Y-87674564D01*
X139938489Y-87674564D02*
X140092050Y-87751345D01*
X140092050Y-87751345D02*
X140168831Y-87828125D01*
X140168831Y-87828125D02*
X140245611Y-87981686D01*
X140245611Y-87981686D02*
X140245611Y-88212028D01*
X140245611Y-88212028D02*
X140168831Y-88365589D01*
X140168831Y-88365589D02*
X140092050Y-88442370D01*
X140092050Y-88442370D02*
X139938489Y-88519150D01*
X139938489Y-88519150D02*
X139324244Y-88519150D01*
X140936636Y-88442370D02*
X141474100Y-88442370D01*
X141704442Y-89286956D02*
X140936636Y-89286956D01*
X140936636Y-89286956D02*
X140936636Y-87674564D01*
X140936636Y-87674564D02*
X141704442Y-87674564D01*
X142318687Y-89210176D02*
X142549029Y-89286956D01*
X142549029Y-89286956D02*
X142932931Y-89286956D01*
X142932931Y-89286956D02*
X143086493Y-89210176D01*
X143086493Y-89210176D02*
X143163273Y-89133395D01*
X143163273Y-89133395D02*
X143240054Y-88979834D01*
X143240054Y-88979834D02*
X143240054Y-88826273D01*
X143240054Y-88826273D02*
X143163273Y-88672712D01*
X143163273Y-88672712D02*
X143086493Y-88595931D01*
X143086493Y-88595931D02*
X142932931Y-88519150D01*
X142932931Y-88519150D02*
X142625809Y-88442370D01*
X142625809Y-88442370D02*
X142472248Y-88365589D01*
X142472248Y-88365589D02*
X142395467Y-88288809D01*
X142395467Y-88288809D02*
X142318687Y-88135248D01*
X142318687Y-88135248D02*
X142318687Y-87981686D01*
X142318687Y-87981686D02*
X142395467Y-87828125D01*
X142395467Y-87828125D02*
X142472248Y-87751345D01*
X142472248Y-87751345D02*
X142625809Y-87674564D01*
X142625809Y-87674564D02*
X143009712Y-87674564D01*
X143009712Y-87674564D02*
X143240054Y-87751345D01*
X143931078Y-88442370D02*
X144468542Y-88442370D01*
X144698884Y-89286956D02*
X143931078Y-89286956D01*
X143931078Y-89286956D02*
X143931078Y-87674564D01*
X143931078Y-87674564D02*
X144698884Y-87674564D01*
X145159568Y-87674564D02*
X146080935Y-87674564D01*
X145620251Y-89286956D02*
X145620251Y-87674564D01*
X139247464Y-91422134D02*
X140015270Y-91422134D01*
X139093903Y-91882817D02*
X139631367Y-90270425D01*
X139631367Y-90270425D02*
X140168831Y-91882817D01*
X141013417Y-90270425D02*
X141166978Y-90270425D01*
X141166978Y-90270425D02*
X141320539Y-90347206D01*
X141320539Y-90347206D02*
X141397320Y-90423986D01*
X141397320Y-90423986D02*
X141474100Y-90577547D01*
X141474100Y-90577547D02*
X141550881Y-90884670D01*
X141550881Y-90884670D02*
X141550881Y-91268573D01*
X141550881Y-91268573D02*
X141474100Y-91575695D01*
X141474100Y-91575695D02*
X141397320Y-91729256D01*
X141397320Y-91729256D02*
X141320539Y-91806037D01*
X141320539Y-91806037D02*
X141166978Y-91882817D01*
X141166978Y-91882817D02*
X141013417Y-91882817D01*
X141013417Y-91882817D02*
X140859856Y-91806037D01*
X140859856Y-91806037D02*
X140783075Y-91729256D01*
X140783075Y-91729256D02*
X140706294Y-91575695D01*
X140706294Y-91575695D02*
X140629514Y-91268573D01*
X140629514Y-91268573D02*
X140629514Y-90884670D01*
X140629514Y-90884670D02*
X140706294Y-90577547D01*
X140706294Y-90577547D02*
X140783075Y-90423986D01*
X140783075Y-90423986D02*
X140859856Y-90347206D01*
X140859856Y-90347206D02*
X141013417Y-90270425D01*
X139324244Y-94478678D02*
X139324244Y-92866286D01*
X139324244Y-92866286D02*
X139708147Y-92866286D01*
X139708147Y-92866286D02*
X139938489Y-92943067D01*
X139938489Y-92943067D02*
X140092050Y-93096628D01*
X140092050Y-93096628D02*
X140168831Y-93250189D01*
X140168831Y-93250189D02*
X140245611Y-93557311D01*
X140245611Y-93557311D02*
X140245611Y-93787653D01*
X140245611Y-93787653D02*
X140168831Y-94094775D01*
X140168831Y-94094775D02*
X140092050Y-94248336D01*
X140092050Y-94248336D02*
X139938489Y-94401898D01*
X139938489Y-94401898D02*
X139708147Y-94478678D01*
X139708147Y-94478678D02*
X139324244Y-94478678D01*
X141243759Y-92866286D02*
X141397320Y-92866286D01*
X141397320Y-92866286D02*
X141550881Y-92943067D01*
X141550881Y-92943067D02*
X141627662Y-93019847D01*
X141627662Y-93019847D02*
X141704442Y-93173408D01*
X141704442Y-93173408D02*
X141781223Y-93480531D01*
X141781223Y-93480531D02*
X141781223Y-93864434D01*
X141781223Y-93864434D02*
X141704442Y-94171556D01*
X141704442Y-94171556D02*
X141627662Y-94325117D01*
X141627662Y-94325117D02*
X141550881Y-94401898D01*
X141550881Y-94401898D02*
X141397320Y-94478678D01*
X141397320Y-94478678D02*
X141243759Y-94478678D01*
X141243759Y-94478678D02*
X141090198Y-94401898D01*
X141090198Y-94401898D02*
X141013417Y-94325117D01*
X141013417Y-94325117D02*
X140936636Y-94171556D01*
X140936636Y-94171556D02*
X140859856Y-93864434D01*
X140859856Y-93864434D02*
X140859856Y-93480531D01*
X140859856Y-93480531D02*
X140936636Y-93173408D01*
X140936636Y-93173408D02*
X141013417Y-93019847D01*
X141013417Y-93019847D02*
X141090198Y-92943067D01*
X141090198Y-92943067D02*
X141243759Y-92866286D01*
X139324244Y-97074539D02*
X139324244Y-95462147D01*
X139324244Y-95462147D02*
X139708147Y-95462147D01*
X139708147Y-95462147D02*
X139938489Y-95538928D01*
X139938489Y-95538928D02*
X140092050Y-95692489D01*
X140092050Y-95692489D02*
X140168831Y-95846050D01*
X140168831Y-95846050D02*
X140245611Y-96153172D01*
X140245611Y-96153172D02*
X140245611Y-96383514D01*
X140245611Y-96383514D02*
X140168831Y-96690636D01*
X140168831Y-96690636D02*
X140092050Y-96844197D01*
X140092050Y-96844197D02*
X139938489Y-96997759D01*
X139938489Y-96997759D02*
X139708147Y-97074539D01*
X139708147Y-97074539D02*
X139324244Y-97074539D01*
X141704442Y-95462147D02*
X140936636Y-95462147D01*
X140936636Y-95462147D02*
X140859856Y-96229953D01*
X140859856Y-96229953D02*
X140936636Y-96153172D01*
X140936636Y-96153172D02*
X141090198Y-96076392D01*
X141090198Y-96076392D02*
X141474100Y-96076392D01*
X141474100Y-96076392D02*
X141627662Y-96153172D01*
X141627662Y-96153172D02*
X141704442Y-96229953D01*
X141704442Y-96229953D02*
X141781223Y-96383514D01*
X141781223Y-96383514D02*
X141781223Y-96767417D01*
X141781223Y-96767417D02*
X141704442Y-96920978D01*
X141704442Y-96920978D02*
X141627662Y-96997759D01*
X141627662Y-96997759D02*
X141474100Y-97074539D01*
X141474100Y-97074539D02*
X141090198Y-97074539D01*
X141090198Y-97074539D02*
X140936636Y-96997759D01*
X140936636Y-96997759D02*
X140859856Y-96920978D01*
X139324244Y-99670400D02*
X139324244Y-98058008D01*
X139324244Y-98058008D02*
X139708147Y-98058008D01*
X139708147Y-98058008D02*
X139938489Y-98134789D01*
X139938489Y-98134789D02*
X140092050Y-98288350D01*
X140092050Y-98288350D02*
X140168831Y-98441911D01*
X140168831Y-98441911D02*
X140245611Y-98749033D01*
X140245611Y-98749033D02*
X140245611Y-98979375D01*
X140245611Y-98979375D02*
X140168831Y-99286497D01*
X140168831Y-99286497D02*
X140092050Y-99440058D01*
X140092050Y-99440058D02*
X139938489Y-99593620D01*
X139938489Y-99593620D02*
X139708147Y-99670400D01*
X139708147Y-99670400D02*
X139324244Y-99670400D01*
X141627662Y-98058008D02*
X141320539Y-98058008D01*
X141320539Y-98058008D02*
X141166978Y-98134789D01*
X141166978Y-98134789D02*
X141090198Y-98211569D01*
X141090198Y-98211569D02*
X140936636Y-98441911D01*
X140936636Y-98441911D02*
X140859856Y-98749033D01*
X140859856Y-98749033D02*
X140859856Y-99363278D01*
X140859856Y-99363278D02*
X140936636Y-99516839D01*
X140936636Y-99516839D02*
X141013417Y-99593620D01*
X141013417Y-99593620D02*
X141166978Y-99670400D01*
X141166978Y-99670400D02*
X141474100Y-99670400D01*
X141474100Y-99670400D02*
X141627662Y-99593620D01*
X141627662Y-99593620D02*
X141704442Y-99516839D01*
X141704442Y-99516839D02*
X141781223Y-99363278D01*
X141781223Y-99363278D02*
X141781223Y-98979375D01*
X141781223Y-98979375D02*
X141704442Y-98825814D01*
X141704442Y-98825814D02*
X141627662Y-98749033D01*
X141627662Y-98749033D02*
X141474100Y-98672253D01*
X141474100Y-98672253D02*
X141166978Y-98672253D01*
X141166978Y-98672253D02*
X141013417Y-98749033D01*
X141013417Y-98749033D02*
X140936636Y-98825814D01*
X140936636Y-98825814D02*
X140859856Y-98979375D01*
X139324244Y-102266261D02*
X139324244Y-100653869D01*
X139324244Y-100653869D02*
X139708147Y-100653869D01*
X139708147Y-100653869D02*
X139938489Y-100730650D01*
X139938489Y-100730650D02*
X140092050Y-100884211D01*
X140092050Y-100884211D02*
X140168831Y-101037772D01*
X140168831Y-101037772D02*
X140245611Y-101344894D01*
X140245611Y-101344894D02*
X140245611Y-101575236D01*
X140245611Y-101575236D02*
X140168831Y-101882358D01*
X140168831Y-101882358D02*
X140092050Y-102035919D01*
X140092050Y-102035919D02*
X139938489Y-102189481D01*
X139938489Y-102189481D02*
X139708147Y-102266261D01*
X139708147Y-102266261D02*
X139324244Y-102266261D01*
X140783075Y-100653869D02*
X141858003Y-100653869D01*
X141858003Y-100653869D02*
X141166978Y-102266261D01*
X143623956Y-100577089D02*
X142241906Y-102650164D01*
X145082787Y-102266261D02*
X144545323Y-101498455D01*
X144161420Y-102266261D02*
X144161420Y-100653869D01*
X144161420Y-100653869D02*
X144775665Y-100653869D01*
X144775665Y-100653869D02*
X144929226Y-100730650D01*
X144929226Y-100730650D02*
X145006007Y-100807430D01*
X145006007Y-100807430D02*
X145082787Y-100960991D01*
X145082787Y-100960991D02*
X145082787Y-101191333D01*
X145082787Y-101191333D02*
X145006007Y-101344894D01*
X145006007Y-101344894D02*
X144929226Y-101421675D01*
X144929226Y-101421675D02*
X144775665Y-101498455D01*
X144775665Y-101498455D02*
X144161420Y-101498455D01*
X145620251Y-100653869D02*
X146695179Y-102266261D01*
X146695179Y-100653869D02*
X145620251Y-102266261D01*
X147309423Y-102266261D02*
X147309423Y-100653869D01*
X147309423Y-100653869D02*
X147693326Y-100653869D01*
X147693326Y-100653869D02*
X147923668Y-100730650D01*
X147923668Y-100730650D02*
X148077229Y-100884211D01*
X148077229Y-100884211D02*
X148154010Y-101037772D01*
X148154010Y-101037772D02*
X148230790Y-101344894D01*
X148230790Y-101344894D02*
X148230790Y-101575236D01*
X148230790Y-101575236D02*
X148154010Y-101882358D01*
X148154010Y-101882358D02*
X148077229Y-102035919D01*
X148077229Y-102035919D02*
X147923668Y-102189481D01*
X147923668Y-102189481D02*
X147693326Y-102266261D01*
X147693326Y-102266261D02*
X147309423Y-102266261D01*
X148845035Y-100807430D02*
X148921815Y-100730650D01*
X148921815Y-100730650D02*
X149075377Y-100653869D01*
X149075377Y-100653869D02*
X149459279Y-100653869D01*
X149459279Y-100653869D02*
X149612841Y-100730650D01*
X149612841Y-100730650D02*
X149689621Y-100807430D01*
X149689621Y-100807430D02*
X149766402Y-100960991D01*
X149766402Y-100960991D02*
X149766402Y-101114553D01*
X149766402Y-101114553D02*
X149689621Y-101344894D01*
X149689621Y-101344894D02*
X148768254Y-102266261D01*
X148768254Y-102266261D02*
X149766402Y-102266261D01*
X139324244Y-104862122D02*
X139324244Y-103249730D01*
X139324244Y-103249730D02*
X139708147Y-103249730D01*
X139708147Y-103249730D02*
X139938489Y-103326511D01*
X139938489Y-103326511D02*
X140092050Y-103480072D01*
X140092050Y-103480072D02*
X140168831Y-103633633D01*
X140168831Y-103633633D02*
X140245611Y-103940755D01*
X140245611Y-103940755D02*
X140245611Y-104171097D01*
X140245611Y-104171097D02*
X140168831Y-104478219D01*
X140168831Y-104478219D02*
X140092050Y-104631780D01*
X140092050Y-104631780D02*
X139938489Y-104785342D01*
X139938489Y-104785342D02*
X139708147Y-104862122D01*
X139708147Y-104862122D02*
X139324244Y-104862122D01*
X141166978Y-103940755D02*
X141013417Y-103863975D01*
X141013417Y-103863975D02*
X140936636Y-103787194D01*
X140936636Y-103787194D02*
X140859856Y-103633633D01*
X140859856Y-103633633D02*
X140859856Y-103556852D01*
X140859856Y-103556852D02*
X140936636Y-103403291D01*
X140936636Y-103403291D02*
X141013417Y-103326511D01*
X141013417Y-103326511D02*
X141166978Y-103249730D01*
X141166978Y-103249730D02*
X141474100Y-103249730D01*
X141474100Y-103249730D02*
X141627662Y-103326511D01*
X141627662Y-103326511D02*
X141704442Y-103403291D01*
X141704442Y-103403291D02*
X141781223Y-103556852D01*
X141781223Y-103556852D02*
X141781223Y-103633633D01*
X141781223Y-103633633D02*
X141704442Y-103787194D01*
X141704442Y-103787194D02*
X141627662Y-103863975D01*
X141627662Y-103863975D02*
X141474100Y-103940755D01*
X141474100Y-103940755D02*
X141166978Y-103940755D01*
X141166978Y-103940755D02*
X141013417Y-104017536D01*
X141013417Y-104017536D02*
X140936636Y-104094316D01*
X140936636Y-104094316D02*
X140859856Y-104247878D01*
X140859856Y-104247878D02*
X140859856Y-104555000D01*
X140859856Y-104555000D02*
X140936636Y-104708561D01*
X140936636Y-104708561D02*
X141013417Y-104785342D01*
X141013417Y-104785342D02*
X141166978Y-104862122D01*
X141166978Y-104862122D02*
X141474100Y-104862122D01*
X141474100Y-104862122D02*
X141627662Y-104785342D01*
X141627662Y-104785342D02*
X141704442Y-104708561D01*
X141704442Y-104708561D02*
X141781223Y-104555000D01*
X141781223Y-104555000D02*
X141781223Y-104247878D01*
X141781223Y-104247878D02*
X141704442Y-104094316D01*
X141704442Y-104094316D02*
X141627662Y-104017536D01*
X141627662Y-104017536D02*
X141474100Y-103940755D01*
X143623956Y-103172950D02*
X142241906Y-105246025D01*
X143931079Y-103249730D02*
X144852446Y-103249730D01*
X144391762Y-104862122D02*
X144391762Y-103249730D01*
X145236348Y-103249730D02*
X146311276Y-104862122D01*
X146311276Y-103249730D02*
X145236348Y-104862122D01*
X146925520Y-104862122D02*
X146925520Y-103249730D01*
X146925520Y-103249730D02*
X147309423Y-103249730D01*
X147309423Y-103249730D02*
X147539765Y-103326511D01*
X147539765Y-103326511D02*
X147693326Y-103480072D01*
X147693326Y-103480072D02*
X147770107Y-103633633D01*
X147770107Y-103633633D02*
X147846887Y-103940755D01*
X147846887Y-103940755D02*
X147846887Y-104171097D01*
X147846887Y-104171097D02*
X147770107Y-104478219D01*
X147770107Y-104478219D02*
X147693326Y-104631780D01*
X147693326Y-104631780D02*
X147539765Y-104785342D01*
X147539765Y-104785342D02*
X147309423Y-104862122D01*
X147309423Y-104862122D02*
X146925520Y-104862122D01*
X148461132Y-103403291D02*
X148537912Y-103326511D01*
X148537912Y-103326511D02*
X148691474Y-103249730D01*
X148691474Y-103249730D02*
X149075376Y-103249730D01*
X149075376Y-103249730D02*
X149228938Y-103326511D01*
X149228938Y-103326511D02*
X149305718Y-103403291D01*
X149305718Y-103403291D02*
X149382499Y-103556852D01*
X149382499Y-103556852D02*
X149382499Y-103710414D01*
X149382499Y-103710414D02*
X149305718Y-103940755D01*
X149305718Y-103940755D02*
X148384351Y-104862122D01*
X148384351Y-104862122D02*
X149382499Y-104862122D01*
X139170683Y-105845591D02*
X140168831Y-105845591D01*
X140168831Y-105845591D02*
X139631367Y-106459836D01*
X139631367Y-106459836D02*
X139861708Y-106459836D01*
X139861708Y-106459836D02*
X140015270Y-106536616D01*
X140015270Y-106536616D02*
X140092050Y-106613397D01*
X140092050Y-106613397D02*
X140168831Y-106766958D01*
X140168831Y-106766958D02*
X140168831Y-107150861D01*
X140168831Y-107150861D02*
X140092050Y-107304422D01*
X140092050Y-107304422D02*
X140015270Y-107381203D01*
X140015270Y-107381203D02*
X139861708Y-107457983D01*
X139861708Y-107457983D02*
X139401025Y-107457983D01*
X139401025Y-107457983D02*
X139247464Y-107381203D01*
X139247464Y-107381203D02*
X139170683Y-107304422D01*
X140629514Y-105845591D02*
X141166978Y-107457983D01*
X141166978Y-107457983D02*
X141704442Y-105845591D01*
X142088344Y-105845591D02*
X143086492Y-105845591D01*
X143086492Y-105845591D02*
X142549028Y-106459836D01*
X142549028Y-106459836D02*
X142779369Y-106459836D01*
X142779369Y-106459836D02*
X142932931Y-106536616D01*
X142932931Y-106536616D02*
X143009711Y-106613397D01*
X143009711Y-106613397D02*
X143086492Y-106766958D01*
X143086492Y-106766958D02*
X143086492Y-107150861D01*
X143086492Y-107150861D02*
X143009711Y-107304422D01*
X143009711Y-107304422D02*
X142932931Y-107381203D01*
X142932931Y-107381203D02*
X142779369Y-107457983D01*
X142779369Y-107457983D02*
X142318686Y-107457983D01*
X142318686Y-107457983D02*
X142165125Y-107381203D01*
X142165125Y-107381203D02*
X142088344Y-107304422D01*
X155957319Y-87674564D02*
X156878686Y-87674564D01*
X156418002Y-89286956D02*
X156418002Y-87674564D01*
X157262588Y-87674564D02*
X158337516Y-89286956D01*
X158337516Y-87674564D02*
X157262588Y-89286956D01*
X156725124Y-91882817D02*
X156187660Y-91115011D01*
X155803757Y-91882817D02*
X155803757Y-90270425D01*
X155803757Y-90270425D02*
X156418002Y-90270425D01*
X156418002Y-90270425D02*
X156571563Y-90347206D01*
X156571563Y-90347206D02*
X156648344Y-90423986D01*
X156648344Y-90423986D02*
X156725124Y-90577547D01*
X156725124Y-90577547D02*
X156725124Y-90807889D01*
X156725124Y-90807889D02*
X156648344Y-90961450D01*
X156648344Y-90961450D02*
X156571563Y-91038231D01*
X156571563Y-91038231D02*
X156418002Y-91115011D01*
X156418002Y-91115011D02*
X155803757Y-91115011D01*
X157262588Y-90270425D02*
X158337516Y-91882817D01*
X158337516Y-90270425D02*
X157262588Y-91882817D01*
X155803757Y-94478678D02*
X155803757Y-92866286D01*
X155803757Y-92866286D02*
X156187660Y-92866286D01*
X156187660Y-92866286D02*
X156418002Y-92943067D01*
X156418002Y-92943067D02*
X156571563Y-93096628D01*
X156571563Y-93096628D02*
X156648344Y-93250189D01*
X156648344Y-93250189D02*
X156725124Y-93557311D01*
X156725124Y-93557311D02*
X156725124Y-93787653D01*
X156725124Y-93787653D02*
X156648344Y-94094775D01*
X156648344Y-94094775D02*
X156571563Y-94248336D01*
X156571563Y-94248336D02*
X156418002Y-94401898D01*
X156418002Y-94401898D02*
X156187660Y-94478678D01*
X156187660Y-94478678D02*
X155803757Y-94478678D01*
X158260736Y-94478678D02*
X157339369Y-94478678D01*
X157800052Y-94478678D02*
X157800052Y-92866286D01*
X157800052Y-92866286D02*
X157646491Y-93096628D01*
X157646491Y-93096628D02*
X157492930Y-93250189D01*
X157492930Y-93250189D02*
X157339369Y-93326970D01*
X155803757Y-97074539D02*
X155803757Y-95462147D01*
X155803757Y-95462147D02*
X156187660Y-95462147D01*
X156187660Y-95462147D02*
X156418002Y-95538928D01*
X156418002Y-95538928D02*
X156571563Y-95692489D01*
X156571563Y-95692489D02*
X156648344Y-95846050D01*
X156648344Y-95846050D02*
X156725124Y-96153172D01*
X156725124Y-96153172D02*
X156725124Y-96383514D01*
X156725124Y-96383514D02*
X156648344Y-96690636D01*
X156648344Y-96690636D02*
X156571563Y-96844197D01*
X156571563Y-96844197D02*
X156418002Y-96997759D01*
X156418002Y-96997759D02*
X156187660Y-97074539D01*
X156187660Y-97074539D02*
X155803757Y-97074539D01*
X157339369Y-95615708D02*
X157416149Y-95538928D01*
X157416149Y-95538928D02*
X157569711Y-95462147D01*
X157569711Y-95462147D02*
X157953613Y-95462147D01*
X157953613Y-95462147D02*
X158107175Y-95538928D01*
X158107175Y-95538928D02*
X158183955Y-95615708D01*
X158183955Y-95615708D02*
X158260736Y-95769269D01*
X158260736Y-95769269D02*
X158260736Y-95922831D01*
X158260736Y-95922831D02*
X158183955Y-96153172D01*
X158183955Y-96153172D02*
X157262588Y-97074539D01*
X157262588Y-97074539D02*
X158260736Y-97074539D01*
X155803757Y-99670400D02*
X155803757Y-98058008D01*
X155803757Y-98058008D02*
X156187660Y-98058008D01*
X156187660Y-98058008D02*
X156418002Y-98134789D01*
X156418002Y-98134789D02*
X156571563Y-98288350D01*
X156571563Y-98288350D02*
X156648344Y-98441911D01*
X156648344Y-98441911D02*
X156725124Y-98749033D01*
X156725124Y-98749033D02*
X156725124Y-98979375D01*
X156725124Y-98979375D02*
X156648344Y-99286497D01*
X156648344Y-99286497D02*
X156571563Y-99440058D01*
X156571563Y-99440058D02*
X156418002Y-99593620D01*
X156418002Y-99593620D02*
X156187660Y-99670400D01*
X156187660Y-99670400D02*
X155803757Y-99670400D01*
X157262588Y-98058008D02*
X158260736Y-98058008D01*
X158260736Y-98058008D02*
X157723272Y-98672253D01*
X157723272Y-98672253D02*
X157953613Y-98672253D01*
X157953613Y-98672253D02*
X158107175Y-98749033D01*
X158107175Y-98749033D02*
X158183955Y-98825814D01*
X158183955Y-98825814D02*
X158260736Y-98979375D01*
X158260736Y-98979375D02*
X158260736Y-99363278D01*
X158260736Y-99363278D02*
X158183955Y-99516839D01*
X158183955Y-99516839D02*
X158107175Y-99593620D01*
X158107175Y-99593620D02*
X157953613Y-99670400D01*
X157953613Y-99670400D02*
X157492930Y-99670400D01*
X157492930Y-99670400D02*
X157339369Y-99593620D01*
X157339369Y-99593620D02*
X157262588Y-99516839D01*
X155803757Y-102266261D02*
X155803757Y-100653869D01*
X155803757Y-100653869D02*
X156187660Y-100653869D01*
X156187660Y-100653869D02*
X156418002Y-100730650D01*
X156418002Y-100730650D02*
X156571563Y-100884211D01*
X156571563Y-100884211D02*
X156648344Y-101037772D01*
X156648344Y-101037772D02*
X156725124Y-101344894D01*
X156725124Y-101344894D02*
X156725124Y-101575236D01*
X156725124Y-101575236D02*
X156648344Y-101882358D01*
X156648344Y-101882358D02*
X156571563Y-102035919D01*
X156571563Y-102035919D02*
X156418002Y-102189481D01*
X156418002Y-102189481D02*
X156187660Y-102266261D01*
X156187660Y-102266261D02*
X155803757Y-102266261D01*
X158107175Y-101191333D02*
X158107175Y-102266261D01*
X157723272Y-100577089D02*
X157339369Y-101728797D01*
X157339369Y-101728797D02*
X158337516Y-101728797D01*
X154882390Y-103326511D02*
X154728829Y-103249730D01*
X154728829Y-103249730D02*
X154498487Y-103249730D01*
X154498487Y-103249730D02*
X154268145Y-103326511D01*
X154268145Y-103326511D02*
X154114584Y-103480072D01*
X154114584Y-103480072D02*
X154037803Y-103633633D01*
X154037803Y-103633633D02*
X153961023Y-103940755D01*
X153961023Y-103940755D02*
X153961023Y-104171097D01*
X153961023Y-104171097D02*
X154037803Y-104478219D01*
X154037803Y-104478219D02*
X154114584Y-104631780D01*
X154114584Y-104631780D02*
X154268145Y-104785342D01*
X154268145Y-104785342D02*
X154498487Y-104862122D01*
X154498487Y-104862122D02*
X154652048Y-104862122D01*
X154652048Y-104862122D02*
X154882390Y-104785342D01*
X154882390Y-104785342D02*
X154959170Y-104708561D01*
X154959170Y-104708561D02*
X154959170Y-104171097D01*
X154959170Y-104171097D02*
X154652048Y-104171097D01*
X155650195Y-104862122D02*
X155650195Y-103249730D01*
X155650195Y-103249730D02*
X156571562Y-104862122D01*
X156571562Y-104862122D02*
X156571562Y-103249730D01*
X157339368Y-104862122D02*
X157339368Y-103249730D01*
X157339368Y-103249730D02*
X157723271Y-103249730D01*
X157723271Y-103249730D02*
X157953613Y-103326511D01*
X157953613Y-103326511D02*
X158107174Y-103480072D01*
X158107174Y-103480072D02*
X158183955Y-103633633D01*
X158183955Y-103633633D02*
X158260735Y-103940755D01*
X158260735Y-103940755D02*
X158260735Y-104171097D01*
X158260735Y-104171097D02*
X158183955Y-104478219D01*
X158183955Y-104478219D02*
X158107174Y-104631780D01*
X158107174Y-104631780D02*
X157953613Y-104785342D01*
X157953613Y-104785342D02*
X157723271Y-104862122D01*
X157723271Y-104862122D02*
X157339368Y-104862122D01*
X156801905Y-105845591D02*
X156034099Y-105845591D01*
X156034099Y-105845591D02*
X155957319Y-106613397D01*
X155957319Y-106613397D02*
X156034099Y-106536616D01*
X156034099Y-106536616D02*
X156187661Y-106459836D01*
X156187661Y-106459836D02*
X156571563Y-106459836D01*
X156571563Y-106459836D02*
X156725125Y-106536616D01*
X156725125Y-106536616D02*
X156801905Y-106613397D01*
X156801905Y-106613397D02*
X156878686Y-106766958D01*
X156878686Y-106766958D02*
X156878686Y-107150861D01*
X156878686Y-107150861D02*
X156801905Y-107304422D01*
X156801905Y-107304422D02*
X156725125Y-107381203D01*
X156725125Y-107381203D02*
X156571563Y-107457983D01*
X156571563Y-107457983D02*
X156187661Y-107457983D01*
X156187661Y-107457983D02*
X156034099Y-107381203D01*
X156034099Y-107381203D02*
X155957319Y-107304422D01*
X157339369Y-105845591D02*
X157876833Y-107457983D01*
X157876833Y-107457983D02*
X158414297Y-105845591D01*
%TO.C,J3*%
D14*
X136970000Y-123390000D02*
X138300000Y-123390000D01*
X136970000Y-124500000D02*
X136970000Y-123390000D01*
X136970000Y-125960000D02*
X142170000Y-125960000D01*
X136970000Y-134590000D02*
X136970000Y-125960000D01*
X136970000Y-134590000D02*
X142170000Y-134590000D01*
X137090000Y-134590000D02*
X137090000Y-125960000D01*
X137208095Y-134590000D02*
X137208095Y-125960000D01*
X137326190Y-134590000D02*
X137326190Y-125960000D01*
X137444286Y-134590000D02*
X137444286Y-125960000D01*
X137562381Y-134590000D02*
X137562381Y-125960000D01*
X137680476Y-134590000D02*
X137680476Y-125960000D01*
X137798571Y-134590000D02*
X137798571Y-125960000D01*
X137916667Y-134590000D02*
X137916667Y-125960000D01*
X137940000Y-125960000D02*
X137940000Y-125610000D01*
X138034762Y-134590000D02*
X138034762Y-125960000D01*
X138152857Y-134590000D02*
X138152857Y-125960000D01*
X138270952Y-134590000D02*
X138270952Y-125960000D01*
X138389048Y-134590000D02*
X138389048Y-125960000D01*
X138507143Y-134590000D02*
X138507143Y-125960000D01*
X138625238Y-134590000D02*
X138625238Y-125960000D01*
X138660000Y-125960000D02*
X138660000Y-125610000D01*
X138743333Y-134590000D02*
X138743333Y-125960000D01*
X138861429Y-134590000D02*
X138861429Y-125960000D01*
X138979524Y-134590000D02*
X138979524Y-125960000D01*
X139097619Y-134590000D02*
X139097619Y-125960000D01*
X139215714Y-134590000D02*
X139215714Y-125960000D01*
X139333810Y-134590000D02*
X139333810Y-125960000D01*
X139451905Y-134590000D02*
X139451905Y-125960000D01*
X139570000Y-134590000D02*
X139570000Y-125960000D01*
X140480000Y-125960000D02*
X140480000Y-125550000D01*
X141200000Y-125960000D02*
X141200000Y-125550000D01*
X142170000Y-134590000D02*
X142170000Y-125960000D01*
%TO.C,R1*%
X132827064Y-100665000D02*
X132372936Y-100665000D01*
X132827064Y-102135000D02*
X132372936Y-102135000D01*
D15*
%TO.C,LOGO2*%
G36*
X142501646Y-76138650D02*
G01*
X142623470Y-76177656D01*
X142737176Y-76236232D01*
X143128620Y-75917054D01*
X143482946Y-76271380D01*
X143161034Y-76666177D01*
X143257045Y-76897916D01*
X143763800Y-76949439D01*
X143763800Y-77450561D01*
X143257045Y-77502084D01*
X143161034Y-77733823D01*
X143482946Y-78128620D01*
X143128620Y-78482946D01*
X142737177Y-78163769D01*
X142556601Y-78256794D01*
X142288679Y-77610073D01*
X142526262Y-77417599D01*
X142573649Y-77321467D01*
X142592728Y-77210339D01*
X142579464Y-77098367D01*
X142534947Y-76994772D01*
X142462841Y-76908083D01*
X142369087Y-76845440D01*
X142261406Y-76812002D01*
X142148659Y-76810520D01*
X142040133Y-76841119D01*
X141944767Y-76901276D01*
X141870411Y-76986039D01*
X141823187Y-77088431D01*
X141807825Y-77194234D01*
X141877078Y-77422564D01*
X141950688Y-77503772D01*
X142291677Y-77708100D01*
X142070710Y-77708100D01*
X141844668Y-78253732D01*
X141693403Y-78183577D01*
X141661079Y-78165192D01*
X141271380Y-78482946D01*
X140917054Y-78128620D01*
X141238966Y-77733823D01*
X141142955Y-77502084D01*
X140636200Y-77450561D01*
X140636200Y-76949439D01*
X141142955Y-76897916D01*
X141238966Y-76666177D01*
X140917054Y-76271380D01*
X141271380Y-75917054D01*
X141666177Y-76238966D01*
X141897916Y-76142955D01*
X141949439Y-75636200D01*
X142450561Y-75636200D01*
X142501646Y-76138650D01*
G37*
%TO.C,U1*%
D14*
X135600000Y-107820000D02*
X135600000Y-82390000D01*
X135600000Y-107820000D02*
X138140000Y-107820000D01*
X138140000Y-107820000D02*
X138140000Y-114720000D01*
X138140000Y-114720000D02*
X161460000Y-114720000D01*
X159340000Y-80260000D02*
X137730000Y-80260000D01*
X161460000Y-114720000D02*
X161460000Y-82390000D01*
X135600000Y-82390000D02*
G75*
G02*
X137730000Y-80260000I2130002J-2D01*
G01*
X159330000Y-80260000D02*
G75*
G02*
X161460000Y-82390000I0J-2130000D01*
G01*
D16*
X134560000Y-87965000D02*
X134560000Y-89235000D01*
X135195000Y-88600000D01*
X134560000Y-87965000D01*
G36*
X135195000Y-88600000D02*
G01*
X134560000Y-89235000D01*
X134560000Y-87965000D01*
X135195000Y-88600000D01*
G37*
%TD*%
M02*
